<svg width="20" height="20" viewBox="0 0 20 20" fill="none" xmlns="http://www.w3.org/2000/svg">
<path d="M9.42579 13.7833L6.31746 10.6833C6.18566 10.552 6.11158 10.3736 6.11158 10.1875C6.11158 10.0014 6.18566 9.82301 6.31746 9.69167C6.59466 9.42605 7.03193 9.42605 7.30913 9.69167L9.21746 11.6083V3.2C9.21746 2.8134 9.53086 2.5 9.91746 2.5C10.3041 2.5 10.6175 2.8134 10.6175 3.2V11.6083L12.5258 9.69167C12.803 9.42605 13.2403 9.42605 13.5175 9.69167C13.6493 9.82301 13.7233 10.0014 13.7233 10.1875C13.7233 10.3736 13.6493 10.552 13.5175 10.6833L10.4091 13.7833C10.2808 13.9174 10.103 13.9928 9.91746 13.9917C9.7315 13.9948 9.5529 13.9191 9.42579 13.7833Z" fill="#15616D"/>
<path d="M14.2675 7.01667H15.2758C17.3727 7.06223 19.038 8.79464 19.0008 10.8917V14.0667C19.038 16.1637 17.3727 17.8961 15.2758 17.9417L4.55913 17.875C2.46227 17.8294 0.796924 16.097 0.834134 14V10.825C0.809544 9.81347 1.1885 8.83374 1.88737 8.10205C2.58623 7.37035 3.54754 6.94684 4.55913 6.925H5.56747C5.95407 6.925 6.26747 7.2384 6.26747 7.625C6.26747 8.0116 5.95407 8.325 5.56747 8.325H4.55913C3.91801 8.34448 3.31136 8.61977 2.87455 9.08946C2.43774 9.55915 2.20711 10.1842 2.23413 10.825V13.975C2.20711 14.6158 2.43774 15.2408 2.87455 15.7105C3.31136 16.1802 3.91801 16.4555 4.55913 16.475L15.2758 16.5917C15.9169 16.5722 16.5236 16.2969 16.9604 15.8272C17.3972 15.3575 17.6278 14.7325 17.6008 14.0917V10.9167C17.6278 10.2758 17.3972 9.65082 16.9604 9.18113C16.5236 8.71144 15.9169 8.43614 15.2758 8.41667H14.2675C13.8809 8.41667 13.5675 8.10327 13.5675 7.71667C13.5675 7.33007 13.8809 7.01667 14.2675 7.01667Z" fill="#15616D"/>
</svg>
