<svg width="22" height="18" viewBox="0 0 22 18" fill="none" xmlns="http://www.w3.org/2000/svg">
<path fill-rule="evenodd" clip-rule="evenodd" d="M2.87012 0H6.37012C7.61276 0 8.62012 1.00736 8.62012 2.25V5.75C8.62012 6.99264 7.61276 8 6.37012 8H2.87012C1.62748 8 0.620117 6.99264 0.620117 5.75V2.25C0.620117 1.00736 1.62748 0 2.87012 0ZM6.37012 6.5C6.78433 6.5 7.12012 6.16421 7.12012 5.75V2.25C7.12012 1.83579 6.78433 1.5 6.37012 1.5H2.87012C2.45816 1.50539 2.1255 1.83804 2.12012 2.25V5.75C2.1255 6.16196 2.45816 6.49461 2.87012 6.5H6.37012Z" fill="black"/>
<path d="M12.6201 3.75H17.6201C18.0343 3.75 18.3701 3.41421 18.3701 3C18.3701 2.58579 18.0343 2.25 17.6201 2.25H12.6201C12.2059 2.25 11.8701 2.58579 11.8701 3C11.8701 3.41421 12.2059 3.75 12.6201 3.75Z" fill="black"/>
<path d="M12.6201 6.75H20.6201C21.0343 6.75 21.3701 6.41421 21.3701 6C21.3701 5.58579 21.0343 5.25 20.6201 5.25H12.6201C12.2059 5.25 11.8701 5.58579 11.8701 6C11.8701 6.41421 12.2059 6.75 12.6201 6.75Z" fill="black"/>
<path fill-rule="evenodd" clip-rule="evenodd" d="M2.87012 10H6.37012C7.61276 10 8.62012 11.0074 8.62012 12.25V15.75C8.62012 16.3467 8.38306 16.919 7.96111 17.341C7.53915 17.7629 6.96685 18 6.37012 18H2.87012C1.62748 18 0.620117 16.9926 0.620117 15.75V12.25C0.620117 11.0074 1.62748 10 2.87012 10ZM6.37012 16.5C6.78433 16.5 7.12012 16.1642 7.12012 15.75V12.25C7.12012 11.8358 6.78433 11.5 6.37012 11.5H2.87012C2.45816 11.5054 2.1255 11.838 2.12012 12.25V15.75C2.1255 16.162 2.45816 16.4946 2.87012 16.5H6.37012Z" fill="black"/>
<path d="M12.6201 13.75H17.6201C18.0343 13.75 18.3701 13.4142 18.3701 13C18.3701 12.5858 18.0343 12.25 17.6201 12.25H12.6201C12.2059 12.25 11.8701 12.5858 11.8701 13C11.8701 13.4142 12.2059 13.75 12.6201 13.75Z" fill="black"/>
<path d="M20.6201 15.25H12.6201C12.2059 15.25 11.8701 15.5858 11.8701 16C11.8701 16.4142 12.2059 16.75 12.6201 16.75H20.6201C21.0343 16.75 21.3701 16.4142 21.3701 16C21.3701 15.5858 21.0343 15.25 20.6201 15.25Z" fill="black"/>
</svg>
