<svg width="24" height="24" viewBox="0 0 24 24" fill="none" xmlns="http://www.w3.org/2000/svg">
<path fill-rule="evenodd" clip-rule="evenodd" d="M11.6708 8.81828H11.7608V8.83828C12.4183 8.86389 13.0239 9.20204 13.3908 9.74828C13.8851 10.4426 13.8851 11.374 13.3908 12.0683C13.0239 12.6159 12.4192 12.9572 11.7608 12.9883H11.6708C10.8914 13.0423 10.147 12.6571 9.74087 11.9897C9.33476 11.3224 9.33476 10.4842 9.74087 9.81682C10.147 9.14944 10.8914 8.76428 11.6708 8.81828ZM12.1908 10.5883C12.0965 10.437 11.938 10.3374 11.7608 10.3183H11.7108C11.4835 10.2885 11.2596 10.393 11.1365 10.5864C11.0133 10.7797 11.0133 11.0269 11.1365 11.2202C11.2596 11.4135 11.4835 11.5181 11.7108 11.4883H11.7608C11.9352 11.4687 12.0924 11.3737 12.1908 11.2283C12.3376 11.0402 12.3376 10.7764 12.1908 10.5883Z" fill="#4E4E4E"/>
<path d="M15.4008 14.0483C15.2384 14.049 15.0802 13.9963 14.9508 13.8983C14.7853 13.785 14.6721 13.6103 14.6364 13.413C14.6007 13.2157 14.6455 13.0123 14.7608 12.8483C15.6328 11.7131 15.6328 10.1335 14.7608 8.99828C14.5519 8.67279 14.6208 8.24235 14.9208 7.99828C15.0802 7.8773 15.2818 7.82604 15.4796 7.85619C15.6774 7.88633 15.8546 7.99532 15.9708 8.15828C17.2376 9.82487 17.2376 12.1317 15.9708 13.7983C15.8259 13.9602 15.618 14.0514 15.4008 14.0483Z" fill="#4E4E4E"/>
<path d="M18.9608 16.8883C18.7955 16.8876 18.6346 16.8352 18.5008 16.7383C18.3418 16.6158 18.2385 16.4347 18.2141 16.2355C18.1897 16.0363 18.2461 15.8356 18.3708 15.6783C20.5514 12.8833 20.5514 8.96326 18.3708 6.16828C18.1501 5.85121 18.2064 5.4184 18.5008 5.16828C18.8301 4.91424 19.3025 4.97217 19.5608 5.29828C22.1618 8.63457 22.1618 13.312 19.5608 16.6483C19.4073 16.8148 19.1867 16.903 18.9608 16.8883Z" fill="#4E4E4E"/>
<path d="M17.1908 15.4683C17.0358 15.4616 16.8863 15.4094 16.7608 15.3183C16.4531 15.0796 16.3793 14.6452 16.5908 14.3183C18.1188 12.3538 18.1188 9.60279 16.5908 7.63828C16.3748 7.31629 16.4398 6.88273 16.7408 6.63828C17.037 6.37745 17.4859 6.39505 17.7608 6.67828C18.7017 7.89511 19.2118 9.39007 19.2108 10.9283C19.2073 12.4657 18.6977 13.9593 17.7608 15.1783C17.6245 15.3563 17.4149 15.4629 17.1908 15.4683Z" fill="#4E4E4E"/>
<path d="M8.10076 14.0483C7.86432 14.0499 7.64135 13.9384 7.50076 13.7483C6.23568 12.0774 6.23568 9.76917 7.50076 8.09828C7.66153 7.88392 7.92445 7.77162 8.19048 7.80367C8.4565 7.83572 8.68522 8.00726 8.79048 8.25367C8.89573 8.50008 8.86153 8.78393 8.70076 8.99828C7.82711 10.1366 7.82711 11.7199 8.70076 12.8583C8.94143 13.1937 8.8704 13.6598 8.54076 13.9083C8.41105 13.9972 8.258 14.0459 8.10076 14.0483Z" fill="#4E4E4E"/>
<path d="M4.55076 16.8883C4.31679 16.8891 4.09546 16.7822 3.95076 16.5983C1.34975 13.262 1.34975 8.58457 3.95076 5.24828C4.21413 4.95567 4.65891 4.91648 4.96938 5.15854C5.27985 5.4006 5.35032 5.84151 5.13076 6.16828C2.95204 8.96765 2.95204 12.8889 5.13076 15.6883C5.38374 16.0144 5.32564 16.4837 5.00076 16.7383C4.86967 16.8332 4.71259 16.8856 4.55076 16.8883Z" fill="#4E4E4E"/>
<path d="M6.34076 15.4683C6.10678 15.4691 5.88546 15.3622 5.74076 15.1783C4.80173 13.9566 4.29205 12.4592 4.29076 10.9183C4.29692 9.38103 4.81405 7.88945 5.76076 6.67828C5.91766 6.44995 6.18766 6.32671 6.46295 6.35776C6.73825 6.38881 6.97401 6.5691 7.07611 6.82664C7.1782 7.08419 7.13001 7.37704 6.95076 7.58828C5.42269 9.55279 5.42269 12.3038 6.95076 14.2683C7.06601 14.4323 7.11078 14.6357 7.07509 14.833C7.03939 15.0303 6.92619 15.205 6.76076 15.3183C6.63952 15.4103 6.49286 15.4627 6.34076 15.4683Z" fill="#4E4E4E"/>
<path d="M11.7608 19.6783C11.3488 19.6729 11.0162 19.3402 11.0108 18.9283V14.9283C11.0108 14.5141 11.3466 14.1783 11.7608 14.1783C12.175 14.1783 12.5108 14.5141 12.5108 14.9283V18.9283C12.5054 19.3402 12.1727 19.6729 11.7608 19.6783Z" fill="#4E4E4E"/>
<path d="M13.1665 12.008L20.762 4.43822C21.0793 4.11791 21.0793 3.599 20.762 3.27868C20.4503 2.95264 19.9355 2.94285 19.6118 3.2568L12.0163 10.8266L4.51839 3.2568C4.36467 3.09288 4.15078 3 3.92702 3C3.70327 3 3.48938 3.09288 3.33566 3.2568C3.0543 3.56628 3.0543 4.04123 3.33566 4.35071L10.8335 11.9096L3.238 19.4685C2.92067 19.7888 2.92067 20.3077 3.238 20.628C3.38907 20.784 3.59685 20.871 3.81309 20.8687C4.03351 20.8867 4.25202 20.8159 4.42074 20.6718L12.0163 13.102L19.6118 20.7593C19.7629 20.9153 19.9707 21.0022 20.1869 21C20.4029 21.001 20.6102 20.9142 20.762 20.7593C21.0793 20.439 21.0793 19.9201 20.762 19.5998L13.1665 12.008Z" fill="#78290F"/>
</svg>
