<svg width="21" height="20" viewBox="0 0 21 20" fill="none" xmlns="http://www.w3.org/2000/svg">
<path fill-rule="evenodd" clip-rule="evenodd" d="M18.1445 12.5279L18.7778 16.9279C18.8235 17.2667 18.7205 17.6087 18.4953 17.8659C18.2701 18.1231 17.9447 18.2703 17.6028 18.2696H17.4278L13.0278 17.6363C12.4314 17.554 11.8782 17.2789 11.4528 16.8529L3.33614 8.72793C1.75709 7.09301 1.77967 4.49424 3.38689 2.88702C4.99412 1.27979 7.59289 1.25721 9.2278 2.83626L17.3611 10.9529C17.7871 11.3784 18.0622 11.9315 18.1445 12.5279ZM12.3778 15.9696C12.6083 16.1909 12.8976 16.3414 13.2111 16.4029L17.5528 16.9779L16.9445 12.6696C16.8829 12.356 16.7325 12.0668 16.5111 11.8363L8.38614 3.71959C7.83869 3.15757 7.08739 2.84058 6.3028 2.84058C5.51822 2.84058 4.76692 3.15757 4.21947 3.71959C3.67037 4.26549 3.36162 5.00781 3.36162 5.78209C3.36162 6.55638 3.67037 7.29869 4.21947 7.84459L12.3778 15.9696Z" fill="#15616D"/>
<path d="M6.69447 5.31126C6.44821 5.08179 6.06446 5.08857 5.82645 5.32658C5.58844 5.56459 5.58167 5.94834 5.81114 6.19459L9.31947 9.70293C9.56349 9.94664 9.95879 9.94664 10.2028 9.70293C10.4465 9.45891 10.4465 9.06361 10.2028 8.81959L6.69447 5.31126Z" fill="#15616D"/>
</svg>
