<svg width="25" height="24" viewBox="0 0 25 24" fill="none" xmlns="http://www.w3.org/2000/svg">
<g id="Interface essential/Pluse ellipse">
<path id="Icon" fill-rule="evenodd" clip-rule="evenodd" d="M12.1402 2H13.2602C18.4738 2 22.7002 6.22643 22.7002 11.44V12.56C22.7002 17.7736 18.4738 22 13.2602 22H12.1402C6.92663 22 2.7002 17.7736 2.7002 12.56V11.44C2.7002 6.22643 6.92663 2 12.1402 2ZM13.4502 12.75H16.7002C17.1144 12.75 17.4502 12.4142 17.4502 12C17.4502 11.5858 17.1144 11.25 16.7002 11.25H13.4502V8C13.4502 7.58579 13.1144 7.25 12.7002 7.25C12.286 7.25 11.9502 7.58579 11.9502 8V11.25H8.7002C8.28598 11.25 7.9502 11.5858 7.9502 12C7.9502 12.4142 8.28598 12.75 8.7002 12.75H11.9502V16C11.9502 16.4142 12.286 16.75 12.7002 16.75C13.1144 16.75 13.4502 16.4142 13.4502 16V12.75Z" fill="#001524"/>
</g>
</svg>
