<svg width="25" height="24" viewBox="0 0 25 24" fill="none" xmlns="http://www.w3.org/2000/svg">
<path fill-rule="evenodd" clip-rule="evenodd" d="M12.1708 8.81828H12.2608V8.83828C12.9183 8.86389 13.5239 9.20204 13.8908 9.74828C14.3851 10.4426 14.3851 11.374 13.8908 12.0683C13.5239 12.6159 12.9192 12.9572 12.2608 12.9883H12.1708C11.3914 13.0423 10.647 12.6571 10.2409 11.9897C9.83476 11.3224 9.83476 10.4842 10.2409 9.81682C10.647 9.14944 11.3914 8.76428 12.1708 8.81828ZM12.6908 10.5883C12.5965 10.437 12.438 10.3374 12.2608 10.3183H12.2108C11.9835 10.2885 11.7596 10.393 11.6365 10.5864C11.5133 10.7797 11.5133 11.0269 11.6365 11.2202C11.7596 11.4135 11.9835 11.5181 12.2108 11.4883H12.2608C12.4352 11.4687 12.5924 11.3737 12.6908 11.2283C12.8376 11.0402 12.8376 10.7764 12.6908 10.5883Z" fill="white"/>
<path d="M15.9008 14.0483C15.7384 14.049 15.5802 13.9963 15.4508 13.8983C15.2853 13.785 15.1721 13.6103 15.1364 13.413C15.1007 13.2157 15.1455 13.0123 15.2608 12.8483C16.1328 11.7131 16.1328 10.1335 15.2608 8.99828C15.0519 8.67279 15.1208 8.24235 15.4208 7.99828C15.5802 7.8773 15.7818 7.82604 15.9796 7.85619C16.1774 7.88633 16.3546 7.99532 16.4708 8.15828C17.7376 9.82487 17.7376 12.1317 16.4708 13.7983C16.3259 13.9602 16.118 14.0514 15.9008 14.0483Z" fill="white"/>
<path d="M19.4608 16.8883C19.2955 16.8876 19.1346 16.8352 19.0008 16.7383C18.8418 16.6158 18.7385 16.4347 18.7141 16.2355C18.6897 16.0363 18.7461 15.8356 18.8708 15.6783C21.0514 12.8833 21.0514 8.96326 18.8708 6.16828C18.6501 5.85121 18.7064 5.4184 19.0008 5.16828C19.3301 4.91424 19.8025 4.97217 20.0608 5.29828C22.6618 8.63457 22.6618 13.312 20.0608 16.6483C19.9073 16.8148 19.6867 16.903 19.4608 16.8883Z" fill="white"/>
<path d="M17.6908 15.4683C17.5358 15.4616 17.3863 15.4094 17.2608 15.3183C16.9531 15.0796 16.8793 14.6452 17.0908 14.3183C18.6188 12.3538 18.6188 9.60279 17.0908 7.63828C16.8748 7.31629 16.9398 6.88273 17.2408 6.63828C17.537 6.37745 17.9859 6.39505 18.2608 6.67828C19.2017 7.89511 19.7118 9.39007 19.7108 10.9283C19.7073 12.4657 19.1977 13.9593 18.2608 15.1783C18.1245 15.3563 17.9149 15.4629 17.6908 15.4683Z" fill="white"/>
<path d="M8.60076 14.0483C8.36432 14.0499 8.14135 13.9384 8.00076 13.7483C6.73568 12.0774 6.73568 9.76917 8.00076 8.09828C8.16153 7.88392 8.42445 7.77162 8.69048 7.80367C8.9565 7.83572 9.18522 8.00726 9.29048 8.25367C9.39573 8.50008 9.36153 8.78393 9.20076 8.99828C8.32711 10.1366 8.32711 11.7199 9.20076 12.8583C9.44143 13.1937 9.3704 13.6598 9.04076 13.9083C8.91105 13.9972 8.758 14.0459 8.60076 14.0483Z" fill="white"/>
<path d="M5.05076 16.8883C4.81679 16.8891 4.59546 16.7822 4.45076 16.5983C1.84975 13.262 1.84975 8.58457 4.45076 5.24828C4.71413 4.95567 5.15891 4.91648 5.46938 5.15854C5.77985 5.4006 5.85032 5.84151 5.63076 6.16828C3.45204 8.96765 3.45204 12.8889 5.63076 15.6883C5.88374 16.0144 5.82564 16.4837 5.50076 16.7383C5.36967 16.8332 5.21259 16.8856 5.05076 16.8883Z" fill="white"/>
<path d="M6.84076 15.4683C6.60678 15.4691 6.38546 15.3622 6.24076 15.1783C5.30173 13.9566 4.79205 12.4592 4.79076 10.9183C4.79692 9.38103 5.31405 7.88945 6.26076 6.67828C6.41766 6.44995 6.68766 6.32671 6.96295 6.35776C7.23825 6.38881 7.47401 6.5691 7.57611 6.82664C7.6782 7.08419 7.63001 7.37704 7.45076 7.58828C5.92269 9.55279 5.92269 12.3038 7.45076 14.2683C7.56601 14.4323 7.61078 14.6357 7.57509 14.833C7.53939 15.0303 7.42619 15.205 7.26076 15.3183C7.13952 15.4103 6.99286 15.4627 6.84076 15.4683Z" fill="white"/>
<path d="M12.2608 19.6783C11.8488 19.6729 11.5162 19.3402 11.5108 18.9283V14.9283C11.5108 14.5141 11.8466 14.1783 12.2608 14.1783C12.675 14.1783 13.0108 14.5141 13.0108 14.9283V18.9283C13.0054 19.3402 12.6727 19.6729 12.2608 19.6783Z" fill="white"/>
</svg>
