<svg width="21" height="20" viewBox="0 0 21 20" fill="none" xmlns="http://www.w3.org/2000/svg">
<path d="M16.1585 5.83329C15.7949 5.83329 15.5002 6.12804 15.5002 6.49163V13.8583C15.5002 15.4093 14.2428 16.6666 12.6918 16.6666H7.9585C6.4075 16.6666 5.15016 15.4093 5.15016 13.8583V6.49163C5.15016 6.12804 4.85542 5.83329 4.49183 5.83329C4.12824 5.83329 3.8335 6.12804 3.8335 6.49163V13.8583C3.85635 16.1432 5.71515 17.9834 8.00016 17.9833H12.7335C15.0023 17.9607 16.8359 16.1271 16.8585 13.8583V6.49163C16.8589 6.30956 16.7838 6.13547 16.6512 6.01074C16.5186 5.88601 16.3402 5.82177 16.1585 5.83329Z" fill="#78290F"/>
<path fill-rule="evenodd" clip-rule="evenodd" d="M16.1585 4.64996H4.49183C4.12824 4.64996 3.8335 4.35521 3.8335 3.99163C3.8335 3.62804 4.12824 3.33329 4.49183 3.33329H6.70016L7.6835 2.26663C8.05939 1.88447 8.57246 1.66844 9.1085 1.66663H11.5418C12.0701 1.66662 12.5766 1.87645 12.9502 2.24996L13.9502 3.33329H16.1585C16.5221 3.33329 16.8168 3.62804 16.8168 3.99163C16.8168 4.35521 16.5221 4.64996 16.1585 4.64996ZM11.5418 2.98329H9.1085C8.9419 2.98335 8.78136 3.04578 8.6585 3.15829L8.50016 3.32496H12.1502L11.9918 3.15829C11.8699 3.04435 11.7087 2.98168 11.5418 2.98329Z" fill="#78290F"/>
<path d="M7.20016 7.32496V9.82496C7.20016 10.1701 7.47998 10.45 7.82516 10.45C8.17034 10.45 8.45016 10.1701 8.45016 9.82496V7.32496C8.45016 6.97978 8.17034 6.69996 7.82516 6.69996C7.47998 6.69996 7.20016 6.97978 7.20016 7.32496Z" fill="#78290F"/>
<path d="M9.70016 7.32496V13.9916C9.70016 14.3368 9.97999 14.6166 10.3252 14.6166C10.6703 14.6166 10.9502 14.3368 10.9502 13.9916V7.32496C10.9502 6.97978 10.6703 6.69996 10.3252 6.69996C9.97999 6.69996 9.70016 6.97978 9.70016 7.32496Z" fill="#78290F"/>
<path d="M12.2002 7.32496V9.82496C12.2002 10.1701 12.48 10.45 12.8252 10.45C13.1703 10.45 13.4502 10.1701 13.4502 9.82496V7.32496C13.4502 6.97978 13.1703 6.69996 12.8252 6.69996C12.48 6.69996 12.2002 6.97978 12.2002 7.32496Z" fill="#78290F"/>
</svg>
